HIERARCHY
ROOT Hips
{
	OFFSET 0.000000 71.427986 0.000000
	CHANNELS 6 Xposition Yposition Zposition Xrotation Yrotation Zrotation
	JOINT Pelvis
	{
		OFFSET 0.000000 0.000000 0.000000
		CHANNELS 3 Xrotation Yrotation Zrotation
		JOINT LeftUpLeg
		{
			OFFSET 6.797100 -2.508499 -1.318700
			CHANNELS 3 Xrotation Yrotation Zrotation
			JOINT LeftLeg
			{
				OFFSET 0.069008 -29.241863 0.690200
				CHANNELS 3 Xrotation Yrotation Zrotation
				JOINT LeftFoot
				{
					OFFSET -0.069008 -29.568123 -0.266800
					CHANNELS 3 Xrotation Yrotation Zrotation
					JOINT LeftToeBase
					{
						OFFSET 3.145500 -8.631000 16.059900
						CHANNELS 3 Xrotation Yrotation Zrotation
						End Site
						{
							OFFSET 0.000000 18.501587 0.000000
						}
					}
				}
			}
			JOINT Left_ShortSleeve
			{
				OFFSET 0.265923 -10.480953 1.153800
				CHANNELS 3 Xrotation Yrotation Zrotation
				End Site
				{
					OFFSET 1.725763 19.823879 0.000000
				}
			}
		}
		JOINT RightUpLeg
		{
			OFFSET -6.797100 -2.508499 -1.318700
			CHANNELS 3 Xrotation Yrotation Zrotation
			JOINT RightLeg
			{
				OFFSET -0.082453 -29.241932 0.688000
				CHANNELS 3 Xrotation Yrotation Zrotation
				JOINT RightFoot
				{
					OFFSET 0.082453 -29.568058 -0.264600
					CHANNELS 3 Xrotation Yrotation Zrotation
					JOINT RightToeBase
					{
						OFFSET -3.115300 -8.682800 16.113400
						CHANNELS 3 Xrotation Yrotation Zrotation
						End Site
						{
							OFFSET 0.000000 18.567114 0.000000
						}
					}
				}
			}
			JOINT Right_ShortSleeve
			{
				OFFSET -0.265923 -10.480953 1.153800
				CHANNELS 3 Xrotation Yrotation Zrotation
				End Site
				{
					OFFSET -1.725766 19.823910 0.000000
				}
			}
		}
	}
	JOINT Spine
	{
		OFFSET 0.000000 13.368103 0.470500
		CHANNELS 3 Xrotation Yrotation Zrotation
		JOINT Spine1
		{
			OFFSET 0.147000 13.837402 0.538800
			CHANNELS 3 Xrotation Yrotation Zrotation
			JOINT Spine2
			{
				OFFSET 0.168000 16.242897 -1.435500
				CHANNELS 3 Xrotation Yrotation Zrotation
				JOINT Neck
				{
					OFFSET 0.217200 18.631500 -1.679100
					CHANNELS 3 Xrotation Yrotation Zrotation
					JOINT Head
					{
						OFFSET 0.000000 6.599396 1.385900
						CHANNELS 3 Xrotation Yrotation Zrotation
						JOINT Hat
						{
							OFFSET -0.532200 27.220596 -10.096100
							CHANNELS 3 Xrotation Yrotation Zrotation
							End Site
							{
								OFFSET 0.000000 22.029861 0.000000
							}
						}
						JOINT HairD
						{
							OFFSET -10.777400 17.437393 -1.325900
							CHANNELS 3 Xrotation Yrotation Zrotation
							JOINT HairD1
							{
								OFFSET -3.290299 -11.051193 1.062200
								CHANNELS 3 Xrotation Yrotation Zrotation
								End Site
								{
									OFFSET 0.000000 11.579437 0.000000
								}
							}
						}
						JOINT HairB
						{
							OFFSET -10.777400 17.437393 1.467900
							CHANNELS 3 Xrotation Yrotation Zrotation
							JOINT HairB1
							{
								OFFSET -1.561200 -12.956299 3.590200
								CHANNELS 3 Xrotation Yrotation Zrotation
								End Site
								{
									OFFSET 0.000000 13.534866 0.000000
								}
							}
						}
						JOINT HairA
						{
							OFFSET 9.713100 17.437393 1.467900
							CHANNELS 3 Xrotation Yrotation Zrotation
							JOINT HairA1
							{
								OFFSET 1.561200 -12.956299 3.590200
								CHANNELS 3 Xrotation Yrotation Zrotation
								End Site
								{
									OFFSET 0.000000 13.534866 0.000000
								}
							}
						}
						JOINT HairC
						{
							OFFSET 9.713100 17.437393 -1.325900
							CHANNELS 3 Xrotation Yrotation Zrotation
							JOINT HairC1
							{
								OFFSET 3.290300 -11.051193 1.062200
								CHANNELS 3 Xrotation Yrotation Zrotation
								End Site
								{
									OFFSET 0.000000 11.579437 0.000000
								}
							}
						}
					}
				}
				JOINT LeftShoulder
				{
					OFFSET 5.101800 15.108002 -2.763700
					CHANNELS 3 Xrotation Yrotation Zrotation
					JOINT LeftArm
					{
						OFFSET 9.825497 2.506317 -1.597400
						CHANNELS 3 Xrotation Yrotation Zrotation
						JOINT LeftForeArm
						{
							OFFSET 21.966244 0.000000 0.000000
							CHANNELS 3 Xrotation Yrotation Zrotation
							JOINT LeftHand
							{
								OFFSET 33.879036 0.000000 0.000000
								CHANNELS 3 Xrotation Yrotation Zrotation
								JOINT LeftHandThumb1
								{
									OFFSET 6.715286 -2.359680 3.363841
									CHANNELS 3 Xrotation Yrotation Zrotation
									JOINT LeftHandThumb2
									{
										OFFSET 2.507072 -1.447464 1.447461
										CHANNELS 3 Xrotation Yrotation Zrotation
										JOINT LeftHandThumb3
										{
											OFFSET 2.898338 -1.673355 1.673357
											CHANNELS 3 Xrotation Yrotation Zrotation
											End Site
											{
												OFFSET -0.295959 3.727692 -0.131651
											}
										}
									}
								}
								JOINT LeftHandIndex1
								{
									OFFSET 14.190811 -0.254547 3.840278
									CHANNELS 3 Xrotation Yrotation Zrotation
									JOINT LeftHandIndex2
									{
										OFFSET 3.551727 0.000000 -0.000000
										CHANNELS 3 Xrotation Yrotation Zrotation
										JOINT LeftHandIndex3
										{
											OFFSET 2.894196 0.000000 0.000000
											CHANNELS 3 Xrotation Yrotation Zrotation
											End Site
											{
												OFFSET -1.000603 2.690872 0.366626
											}
										}
									}
								}
								JOINT LeftHandMiddle1
								{
									OFFSET 13.776489 0.000000 0.000000
									CHANNELS 3 Xrotation Yrotation Zrotation
									JOINT LeftHandMiddle2
									{
										OFFSET 3.438232 0.000000 0.000000
										CHANNELS 3 Xrotation Yrotation Zrotation
										JOINT LeftHandMiddle3
										{
											OFFSET 3.691551 0.000000 0.000000
											CHANNELS 3 Xrotation Yrotation Zrotation
											End Site
											{
												OFFSET -1.082298 3.499527 0.457670
											}
										}
									}
								}
								JOINT LeftHandRing1
								{
									OFFSET 13.966164 -0.268127 -3.067488
									CHANNELS 3 Xrotation Yrotation Zrotation
									JOINT LeftHandRing2
									{
										OFFSET 3.162567 0.000000 0.000000
										CHANNELS 3 Xrotation Yrotation Zrotation
										JOINT LeftHandRing3
										{
											OFFSET 3.324348 0.000000 0.000000
											CHANNELS 3 Xrotation Yrotation Zrotation
											End Site
											{
												OFFSET -0.861900 3.184998 0.405154
											}
										}
									}
								}
								JOINT LeftHandPinky1
								{
									OFFSET 13.131393 -0.168503 -5.746925
									CHANNELS 3 Xrotation Yrotation Zrotation
									JOINT LeftHandPinky2
									{
										OFFSET 2.849182 0.000000 0.000000
										CHANNELS 3 Xrotation Yrotation Zrotation
										JOINT LeftHandPinky3
										{
											OFFSET 2.805038 0.000000 0.000000
											CHANNELS 3 Xrotation Yrotation Zrotation
											End Site
											{
												OFFSET -0.882500 2.642609 0.325652
											}
										}
									}
								}
							}
							JOINT Left_Sleeve
							{
								OFFSET 6.592125 -0.646545 0.805568
								CHANNELS 3 Xrotation Yrotation Zrotation
								End Site
								{
									OFFSET -0.000179 20.275787 -0.000000
								}
							}
						}
					}
				}
				JOINT RightShoulder
				{
					OFFSET -5.731700 15.108002 -2.763700
					CHANNELS 3 Xrotation Yrotation Zrotation
					JOINT RightArm
					{
						OFFSET -9.825497 2.506317 -1.597400
						CHANNELS 3 Xrotation Yrotation Zrotation
						JOINT RightForeArm
						{
							OFFSET -21.966242 0.000000 0.000000
							CHANNELS 3 Xrotation Yrotation Zrotation
							JOINT RightHand
							{
								OFFSET -33.879032 0.000000 0.000000
								CHANNELS 3 Xrotation Yrotation Zrotation
								JOINT RightHandThumb1
								{
									OFFSET -6.715286 -2.359680 3.363841
									CHANNELS 3 Xrotation Yrotation Zrotation
									JOINT RightHandThumb2
									{
										OFFSET -2.507072 -1.447464 1.447461
										CHANNELS 3 Xrotation Yrotation Zrotation
										JOINT RightHandThumb3
										{
											OFFSET -2.898338 -1.673355 1.673357
											CHANNELS 3 Xrotation Yrotation Zrotation
											End Site
											{
												OFFSET 0.295959 3.727692 -0.131651
											}
										}
									}
								}
								JOINT RightHandIndex1
								{
									OFFSET -14.190811 -0.254547 3.840278
									CHANNELS 3 Xrotation Yrotation Zrotation
									JOINT RightHandIndex2
									{
										OFFSET -3.551727 0.000000 -0.000000
										CHANNELS 3 Xrotation Yrotation Zrotation
										JOINT RightHandIndex3
										{
											OFFSET -2.894196 0.000000 0.000000
											CHANNELS 3 Xrotation Yrotation Zrotation
											End Site
											{
												OFFSET 1.000603 2.690872 0.366626
											}
										}
									}
								}
								JOINT RightHandMiddle1
								{
									OFFSET -13.776489 0.000000 0.000000
									CHANNELS 3 Xrotation Yrotation Zrotation
									JOINT RightHandMiddle2
									{
										OFFSET -3.438232 0.000000 0.000000
										CHANNELS 3 Xrotation Yrotation Zrotation
										JOINT RightHandMiddle3
										{
											OFFSET -3.691551 0.000000 0.000000
											CHANNELS 3 Xrotation Yrotation Zrotation
											End Site
											{
												OFFSET 1.082298 3.499527 0.457670
											}
										}
									}
								}
								JOINT RightHandRing1
								{
									OFFSET -13.966164 -0.268127 -3.067488
									CHANNELS 3 Xrotation Yrotation Zrotation
									JOINT RightHandRing2
									{
										OFFSET -3.162567 0.000000 0.000000
										CHANNELS 3 Xrotation Yrotation Zrotation
										JOINT RightHandRing3
										{
											OFFSET -3.324348 0.000000 0.000000
											CHANNELS 3 Xrotation Yrotation Zrotation
											End Site
											{
												OFFSET 0.861900 3.184998 0.405154
											}
										}
									}
								}
								JOINT RightHandPinky1
								{
									OFFSET -13.131393 -0.168503 -5.746925
									CHANNELS 3 Xrotation Yrotation Zrotation
									JOINT RightHandPinky2
									{
										OFFSET -2.849182 0.000000 0.000000
										CHANNELS 3 Xrotation Yrotation Zrotation
										JOINT RightHandPinky3
										{
											OFFSET -2.805038 0.000000 0.000000
											CHANNELS 3 Xrotation Yrotation Zrotation
											End Site
											{
												OFFSET 0.882500 2.642609 0.325652
											}
										}
									}
								}
							}
							JOINT Right_Sleeve
							{
								OFFSET -6.592125 -0.646545 0.805568
								CHANNELS 3 Xrotation Yrotation Zrotation
								End Site
								{
									OFFSET 0.000179 20.275787 -0.000000
								}
							}
						}
					}
				}
				JOINT Bind_Right_JacketString
				{
					OFFSET -3.534800 11.969597 7.200700
					CHANNELS 3 Xrotation Yrotation Zrotation
					JOINT Bind_Right_JacketString1
					{
						OFFSET -0.319900 -6.102600 2.794100
						CHANNELS 3 Xrotation Yrotation Zrotation
						End Site
						{
							OFFSET 0.000000 6.719452 0.000000
						}
					}
				}
				JOINT Bind_Left_JacketString
				{
					OFFSET 2.904800 11.969597 7.200700
					CHANNELS 3 Xrotation Yrotation Zrotation
					JOINT Bind_Left_JacketString1
					{
						OFFSET 0.364800 -5.904503 3.186800
						CHANNELS 3 Xrotation Yrotation Zrotation
						End Site
						{
							OFFSET 0.000000 6.719513 0.000000
						}
					}
				}
				JOINT HairE
				{
					OFFSET 5.915200 17.612701 -11.592200
					CHANNELS 3 Xrotation Yrotation Zrotation
					JOINT HairE1
					{
						OFFSET 0.289200 -7.171898 -1.284500
						CHANNELS 3 Xrotation Yrotation Zrotation
						End Site
						{
							OFFSET 0.000000 7.291756 0.000000
						}
					}
				}
				JOINT HairF
				{
					OFFSET -0.864800 17.612701 -11.592200
					CHANNELS 3 Xrotation Yrotation Zrotation
					JOINT HairF1
					{
						OFFSET 0.000000 -14.087097 -2.127501
						CHANNELS 3 Xrotation Yrotation Zrotation
						End Site
						{
							OFFSET 0.000000 14.246841 0.000000
						}
					}
				}
				JOINT HairG
				{
					OFFSET -8.087700 17.612701 -11.592200
					CHANNELS 3 Xrotation Yrotation Zrotation
					JOINT HairG1
					{
						OFFSET -0.293600 -6.081398 -0.910100
						CHANNELS 3 Xrotation Yrotation Zrotation
						End Site
						{
							OFFSET 0.000000 6.156120 0.000000
						}
					}
				}
			}
		}
	}
	JOINT Pouch
	{
		OFFSET 0.000000 4.394501 10.847300
		CHANNELS 3 Xrotation Yrotation Zrotation
		End Site
		{
			OFFSET 0.000000 21.880577 0.000000
		}
	}
	JOINT Bag
	{
		OFFSET -13.229000 4.813004 -0.593300
		CHANNELS 3 Xrotation Yrotation Zrotation
		End Site
		{
			OFFSET 0.000000 21.880577 0.000000
		}
	}
	JOINT OccupyGuyFacialAnim_Joint
	{
		OFFSET 1.000000 -70.206398 -1.655000
		CHANNELS 3 Xrotation Yrotation Zrotation
		End Site
		{
			OFFSET 0.000000 21.880577 0.000000
		}
	}
}
MOTION
Frames: 4
Frame Time: 0.016667
16.751228 65.818153 3.362944 154.137535 -63.971893 159.950285 -0.000000 0.000001 -0.000000 -58.506137 44.035432 54.310273 40.968588 -10.821430 -5.068802 -1.134483 7.503659 1.900764 0.000001 0.000001 0.000000 -0.000000 0.000000 -0.000002 -41.735994 -15.674377 -25.936043 44.634791 -5.432363 5.269218 -14.188120 -2.953945 7.847984 0.000000 -0.000002 -0.000000 -0.000000 0.000000 0.000000 10.365866 -2.892584 2.042382 5.441880 -1.990673 -3.512884 -3.218482 -5.241823 -2.484908 6.043351 13.386881 -0.965034 -12.384987 14.668045 -5.260455 0.000002 -0.000000 -0.000000 0.000002 -0.000000 -0.000000 0.000002 -0.000000 -0.000000 0.000002 -0.000000 -0.000000 0.000000 -0.000000 -0.000000 0.000002 -0.000000 -0.000000 0.000000 -0.000000 -0.000000 0.000002 -0.000000 -0.000000 0.000002 -0.000000 -0.000000 -1.837973 -14.467497 -4.296788 -24.431884 -9.271231 -47.099226 -14.226246 -27.309268 -17.570296 3.474910 -7.760234 6.842558 20.212994 -4.649813 10.411177 3.371808 17.053172 -9.307530 -0.000000 0.000001 -0.000000 -0.754222 0.208577 -13.245163 0.030471 -0.759503 -17.420377 0.000000 -0.000002 0.000003 2.446911 2.844466 -23.035245 -0.021028 -2.027869 -31.425161 0.000001 -0.000004 -0.000002 0.752466 4.505519 -30.750222 -0.981908 -1.227432 -35.970935 -0.000001 -0.000000 -0.000002 -1.632812 3.694660 -37.232710 -0.950057 -0.779043 -32.064583 -0.000001 -0.000001 0.000001 0.000001 -0.000001 -0.000002 -5.499242 24.268034 2.019080 -13.675001 -20.288507 57.835160 13.715961 34.549440 -4.170633 13.832402 22.666568 12.809453 55.149577 18.649502 -29.698298 -0.442552 -14.180548 7.313154 -0.000001 0.000000 0.000001 5.673416 7.584992 36.844178 1.050417 3.824528 68.900257 -0.000000 -0.000001 0.000000 -0.125703 1.886083 45.000770 -1.169021 3.204656 68.417663 0.000005 -0.000002 -0.000001 -5.312017 1.216672 58.508794 -0.745218 1.667559 48.011275 -0.000001 -0.000001 -0.000002 -7.756799 -9.376481 47.263994 -0.526046 1.541598 45.600508 0.000003 0.000001 -0.000003 0.000001 -0.000000 0.000003 0.000001 -0.000001 -0.000000 0.000001 0.000001 -0.000001 0.000001 -0.000001 -0.000000 0.000001 -0.000001 -0.000000 0.000001 -0.000001 -0.000000 0.000001 0.000001 -0.000000 0.000001 -0.000001 -0.000000 0.000001 -0.000001 -0.000000 0.000001 -0.000001 -0.000000 0.000001 0.000001 -0.000000 -0.000000 0.000001 -0.000000 -0.000000 0.000001 -0.000000 -0.000000 0.000001 -0.000000 
16.827911 65.782562 2.874556 154.827712 -62.585761 160.742191 -0.000001 0.000001 -0.000000 -60.096908 43.315892 55.847482 41.803264 -12.439017 -4.829996 -0.560032 6.622691 3.668573 -0.000001 0.000001 -0.000002 -0.000002 -0.000001 0.000001 -42.209514 -15.452610 -25.255830 45.142940 -5.093655 5.362154 -14.779247 -2.351449 7.201688 0.000000 -0.000002 -0.000000 0.000001 0.000001 0.000001 10.475902 -2.872466 2.020881 5.299429 -1.863428 -3.688210 -3.740330 -4.710134 -2.529081 6.087832 13.825692 -1.303479 -12.333070 14.943267 -5.101972 -0.000001 0.000000 0.000000 -0.000001 0.000000 0.000000 -0.000001 0.000000 0.000000 -0.000001 0.000000 -0.000000 -0.000001 -0.000000 0.000000 -0.000001 0.000000 -0.000000 -0.000001 -0.000000 0.000000 -0.000001 0.000000 0.000000 -0.000001 0.000000 0.000000 -1.833831 -14.445311 -4.259443 -24.484053 -9.447719 -47.266757 -14.703157 -28.284793 -17.623217 3.654414 -8.621936 6.264436 20.213246 -4.649912 10.411330 3.371640 17.053292 -9.307563 0.000001 0.000001 -0.000001 -0.754222 0.208558 -13.245170 0.030191 -0.759589 -17.420351 -0.000000 0.000003 -0.000003 2.446862 2.844494 -23.035257 -0.021101 -2.027797 -31.425192 -0.000001 -0.000000 0.000000 0.752451 4.505402 -30.750249 -0.981753 -1.227648 -35.970942 -0.000001 0.000001 0.000000 -1.632806 3.694684 -37.232720 -0.949863 -0.779155 -32.064593 -0.000000 0.000002 0.000003 0.000003 0.000002 0.000001 -5.518091 24.192588 2.050981 -13.471669 -20.141984 57.616641 14.645643 34.292491 -4.668611 13.381617 22.766233 12.759884 55.149577 18.649509 -29.698298 -0.442553 -14.180550 7.313160 0.000001 -0.000001 0.000002 5.673413 7.585003 36.844178 1.050418 3.824525 68.900257 -0.000003 0.000001 0.000002 -0.125708 1.886090 45.000773 -1.169021 3.204656 68.417663 0.000001 -0.000003 0.000001 -5.312017 1.216675 58.508794 -0.745218 1.667562 48.011271 -0.000000 -0.000001 -0.000001 -7.756801 -9.376472 47.263994 -0.526047 1.541599 45.600511 0.000001 -0.000000 -0.000003 0.000001 -0.000002 0.000000 0.000002 -0.000003 0.000000 0.000002 -0.000001 -0.000001 0.000002 -0.000003 0.000000 0.000002 -0.000003 0.000000 0.000002 -0.000003 0.000000 0.000002 -0.000001 -0.000000 0.000002 -0.000003 0.000000 0.000002 -0.000003 0.000000 0.000002 -0.000003 0.000000 0.000002 -0.000001 -0.000000 -0.000001 0.000001 -0.000000 -0.000001 0.000001 -0.000000 -0.000001 0.000001 -0.000000 
16.882141 65.740845 2.401341 155.453753 -61.267801 161.492323 -0.000000 0.000001 0.000000 -61.418618 42.603745 57.062928 42.352012 -13.876392 -4.557093 0.138988 5.776031 5.299927 -0.000000 -0.000001 -0.000000 0.000001 0.000003 0.000002 -42.627597 -15.217043 -24.613251 45.660829 -4.783355 5.414244 -15.370367 -1.784060 6.632348 0.000000 0.000000 0.000000 -0.000003 0.000003 0.000000 10.536399 -2.839680 1.985960 5.170757 -1.727736 -3.885305 -4.258838 -4.169640 -2.589054 6.369386 14.108987 -1.231393 -12.373164 15.396896 -5.297317 0.000001 0.000000 -0.000000 0.000001 0.000000 -0.000000 0.000001 0.000000 -0.000000 0.000001 0.000000 -0.000000 0.000001 -0.000000 -0.000000 0.000001 0.000000 -0.000000 0.000001 -0.000000 -0.000000 0.000001 0.000000 -0.000000 0.000001 0.000000 -0.000000 -1.831041 -14.578224 -4.183433 -24.473708 -9.331615 -47.461151 -15.137519 -29.354852 -17.695167 3.798905 -9.351022 5.643292 20.213496 -4.650027 10.411472 3.371486 17.053444 -9.307637 -0.000001 -0.000000 -0.000001 -0.754175 0.208573 -13.245174 0.029924 -0.759683 -17.420374 0.000002 0.000002 -0.000002 2.446819 2.844509 -23.035243 -0.021155 -2.027658 -31.425192 -0.000001 0.000003 -0.000001 0.752469 4.505284 -30.750249 -0.981613 -1.227874 -35.970904 -0.000001 -0.000002 -0.000001 -1.632814 3.694677 -37.232748 -0.949715 -0.779213 -32.064576 -0.000000 0.000001 0.000001 0.000003 0.000002 -0.000003 -5.543631 24.107504 2.123107 -13.173081 -20.156838 57.392324 15.493926 34.170999 -5.133768 12.981436 22.876440 12.755365 55.149577 18.649511 -29.698298 -0.442552 -14.180548 7.313157 0.000000 0.000000 0.000003 5.673414 7.584994 36.844175 1.050417 3.824526 68.900257 0.000001 0.000001 0.000002 -0.125705 1.886087 45.000773 -1.169026 3.204653 68.417663 0.000004 -0.000002 0.000001 -5.312013 1.216672 58.508794 -0.745215 1.667565 48.011275 0.000005 -0.000001 -0.000001 -7.756800 -9.376474 47.263994 -0.526046 1.541597 45.600508 0.000003 0.000001 -0.000003 -0.000000 0.000002 -0.000004 0.000001 -0.000000 0.000000 0.000001 -0.000000 -0.000000 0.000001 -0.000000 -0.000000 0.000001 -0.000000 -0.000000 0.000001 -0.000000 0.000000 0.000001 -0.000000 -0.000000 0.000001 -0.000000 -0.000000 0.000001 -0.000000 -0.000000 0.000001 -0.000000 0.000000 0.000001 -0.000000 -0.000000 -0.000000 0.000001 0.000000 -0.000000 0.000001 0.000000 -0.000000 0.000001 0.000000 
16.921947 65.689293 1.889616 156.003597 -59.989101 162.229970 -0.000000 0.000001 -0.000001 -62.394297 41.971769 57.890723 42.476936 -15.098053 -4.291356 0.946469 4.924174 6.684532 -0.000001 0.000002 -0.000001 -0.000001 0.000001 -0.000001 -43.038934 -14.952363 -23.994012 46.267783 -4.501768 5.415836 -16.039031 -1.238948 6.108248 -0.000000 -0.000000 -0.000000 -0.000000 -0.000000 -0.000000 10.559923 -2.802103 1.944416 5.077499 -1.603201 -4.097638 -4.749400 -3.643011 -2.662461 6.469075 14.668557 -1.949853 -12.456448 15.384866 -4.709112 -0.000000 -0.000000 -0.000000 -0.000000 -0.000000 -0.000000 -0.000000 -0.000000 -0.000000 -0.000000 -0.000000 -0.000000 -0.000000 -0.000001 0.000000 -0.000000 -0.000000 -0.000000 -0.000000 -0.000001 0.000000 -0.000000 -0.000000 -0.000000 -0.000000 -0.000000 -0.000000 -1.822010 -14.611906 -4.119292 -24.396503 -9.365119 -47.587997 -15.736308 -30.089927 -17.677855 3.879467 -10.256084 4.806033 20.213728 -4.650109 10.411637 3.371284 17.053558 -9.307677 -0.000002 -0.000002 -0.000003 -0.754159 0.208546 -13.245169 0.029638 -0.759753 -17.420372 0.000002 -0.000001 -0.000004 2.446761 2.844557 -23.035238 -0.021225 -2.027555 -31.425178 0.000001 0.000003 -0.000002 0.752439 4.505210 -30.750215 -0.981478 -1.228061 -35.970911 -0.000003 0.000002 -0.000000 -1.632813 3.694650 -37.232724 -0.949587 -0.779273 -32.064576 -0.000000 0.000001 0.000001 0.000000 -0.000002 -0.000000 -5.569922 24.018606 2.202749 -12.836191 -20.262260 57.156433 16.241546 34.139615 -5.554873 12.609183 23.011151 12.781506 55.149577 18.649505 -29.698294 -0.442552 -14.180550 7.313157 0.000002 0.000000 0.000001 5.673410 7.585003 36.844175 1.050413 3.824524 68.900257 -0.000003 -0.000001 0.000000 -0.125704 1.886093 45.000773 -1.169024 3.204659 68.417663 0.000004 0.000001 0.000001 -5.312017 1.216679 58.508794 -0.745216 1.667562 48.011271 0.000003 -0.000001 -0.000002 -7.756798 -9.376471 47.263994 -0.526048 1.541597 45.600508 0.000000 0.000002 0.000003 0.000002 -0.000000 -0.000001 0.000001 0.000001 -0.000001 0.000001 -0.000001 -0.000000 0.000001 0.000001 -0.000000 0.000001 0.000001 -0.000000 0.000001 0.000001 -0.000001 0.000001 -0.000001 -0.000000 0.000001 0.000001 -0.000000 0.000001 0.000001 -0.000000 0.000001 0.000001 -0.000001 0.000001 -0.000001 -0.000000 -0.000000 0.000001 -0.000001 -0.000000 0.000001 -0.000001 -0.000000 0.000001 -0.000001 
